<svg xmlns="http://www.w3.org/2000/svg" version="1.1" xmlns:xlink="http://www.w3.org/1999/xlink" xmlns:svgjs="http://svgjs.dev/svgjs" width="1440" height="560" preserveAspectRatio="none" viewBox="0 0 1440 560"><g mask="url(&quot;#SvgjsMask2224&quot;)" fill="none"><rect width="1440" height="560" x="0" y="0" fill="url(&quot;#SvgjsLinearGradient2225&quot;)"></rect><path d="M1440 0L976.8299999999999 0L1440 181.09z" fill="rgba(255, 255, 255, .1)"></path><path d="M976.8299999999999 0L1440 181.09L1440 279.8L655.3699999999999 0z" fill="rgba(255, 255, 255, .075)"></path><path d="M655.37 0L1440 279.8L1440 382.91L453.4 0z" fill="rgba(255, 255, 255, .05)"></path><path d="M453.4 0L1440 382.91L1440 452.48L157.32999999999998 0z" fill="rgba(255, 255, 255, .025)"></path><path d="M0 560L471.75 560L0 549.55z" fill="rgba(0, 0, 0, .1)"></path><path d="M0 549.55L471.75 560L960.2 560L0 397.02z" fill="rgba(0, 0, 0, .075)"></path><path d="M0 397.02L960.2 560L1178.98 560L0 345.59999999999997z" fill="rgba(0, 0, 0, .05)"></path><path d="M0 345.6L1178.98 560L1187.47 560L0 178.21000000000004z" fill="rgba(0, 0, 0, .025)"></path></g><defs><mask id="SvgjsMask2224"><rect width="1440" height="560" fill="#ffffff"></rect></mask><linearGradient x1="84.72%" y1="-39.29%" x2="15.28%" y2="139.29%" gradientUnits="userSpaceOnUse" id="SvgjsLinearGradient2225"><stop stop-color="#0e2a47" offset="0"></stop><stop stop-color="rgba(117, 168, 224, 1)" offset="0.2"></stop><stop stop-color="rgba(140, 195, 255, 1)" offset="0.36"></stop><stop stop-color="rgba(140, 195, 255, 1)" offset="1"></stop></linearGradient></defs></svg>